<?xml version="1.0" standalone="no"?>
<!DOCTYPE svg PUBLIC "-//W3C//DTD SVG 20010904//EN"
 "http://www.w3.org/TR/2001/REC-SVG-20010904/DTD/svg10.dtd">
<svg version="1.0" xmlns="http://www.w3.org/2000/svg"
 width="1400.000000pt" height="1400.000000pt" viewBox="0 0 1400.000000 1400.000000"
 preserveAspectRatio="xMidYMid meet">
<metadata>
Created by potrace 1.14, written by Peter Selinger 2001-2017
</metadata>
<g transform="translate(0.000000,1400.000000) scale(0.100000,-0.100000)"
fill="#000000" stroke="none">
<path d="M2927 13984 c-181 -39 -302 -117 -406 -262 -72 -99 -135 -281 -235
-677 -19 -77 -37 -151 -40 -165 -3 -14 -27 -129 -55 -256 -27 -128 -52 -247
-55 -265 -3 -19 -8 -45 -11 -59 -3 -14 -8 -41 -11 -60 -3 -19 -7 -42 -9 -50
-2 -8 -7 -37 -11 -65 -3 -27 -8 -59 -10 -70 -7 -32 -42 -294 -48 -360 -3 -33
-8 -125 -11 -205 -11 -315 -16 -406 -20 -430 -2 -14 -6 -50 -10 -80 -3 -30 -7
-66 -10 -80 -5 -28 -50 -312 -60 -375 -3 -22 -15 -94 -26 -160 -24 -144 -26
-158 -34 -215 -3 -25 -8 -52 -10 -60 -2 -8 -6 -37 -10 -65 -3 -27 -12 -99 -20
-160 -8 -60 -17 -137 -21 -170 -3 -33 -8 -73 -10 -90 -19 -159 -23 -476 -6
-578 9 -56 8 -60 -40 -165 -52 -113 -71 -154 -73 -162 0 -3 -13 -31 -28 -62
-59 -127 -80 -174 -132 -301 -211 -519 -387 -1072 -449 -1407 -23 -123 -22
-117 -41 -428 -2 -41 -7 -110 -10 -155 -3 -45 -7 -118 -10 -162 -3 -44 -7
-118 -10 -165 -15 -232 -15 -234 0 -219 7 8 56 72 108 143 l96 128 10 -38 c28
-106 66 -333 76 -449 2 -16 5 -61 9 -100 6 -72 11 -167 21 -430 4 -82 8 -181
10 -220 10 -215 19 -424 18 -453 0 -18 4 -29 8 -25 4 4 67 127 139 272 l132
264 19 -24 c10 -13 59 -91 108 -174 154 -258 251 -441 546 -1034 110 -220 203
-401 206 -401 4 0 9 26 13 58 14 126 19 124 54 -19 107 -433 285 -698 707
-1052 150 -126 191 -157 206 -157 8 0 31 16 52 35 l39 36 66 -54 c37 -30 106
-94 154 -143 81 -82 120 -129 280 -336 206 -266 597 -552 1083 -793 170 -85
356 -160 454 -185 126 -31 168 -41 271 -59 63 -11 133 -23 155 -27 22 -3 130
-24 240 -45 568 -112 971 -230 1004 -294 14 -27 34 -57 46 -70 6 -7 24 -28 42
-48 75 -86 206 -125 313 -93 68 20 92 36 161 106 75 76 289 265 364 320 33 25
65 50 70 56 19 21 242 164 316 202 120 63 200 91 377 132 92 21 181 41 197 43
24 4 191 34 340 61 11 2 37 6 58 10 l37 7 -105 -167 c-58 -91 -105 -170 -105
-175 0 -7 66 20 215 86 17 7 80 34 140 60 61 25 128 54 150 64 22 10 68 30
102 45 35 14 87 37 117 51 30 14 57 25 60 25 12 0 188 88 286 143 315 177 598
404 809 647 31 35 64 73 74 84 31 35 150 207 215 310 35 56 98 172 140 258 77
157 77 158 107 153 l30 -5 54 138 c29 75 65 166 78 202 59 152 166 493 204
652 52 218 86 343 103 382 8 17 23 52 35 78 11 26 21 50 21 53 0 3 65 137 144
298 79 160 158 324 175 363 46 106 110 274 105 274 -3 0 0 10 7 21 10 20 61
201 73 259 3 14 16 81 30 150 14 69 27 136 30 150 8 45 16 94 21 130 2 19 6
44 9 55 2 11 7 47 11 80 10 75 12 90 19 143 10 73 18 139 31 270 2 26 7 76 11
112 40 400 39 1140 -1 1350 -2 14 -7 45 -10 70 -11 104 -48 270 -120 535 -53
196 -193 579 -288 789 l-54 119 48 102 c66 140 167 396 189 480 4 17 20 70 34
120 28 93 80 312 90 378 3 20 8 54 11 75 3 20 8 46 10 58 5 23 12 80 24 204
10 93 7 570 -3 610 -9 32 -10 131 -2 195 14 124 20 270 20 520 0 288 -7 432
-29 595 -3 19 -7 55 -10 80 -3 25 -10 69 -16 99 -6 30 -12 64 -14 75 -17 123
-100 376 -171 523 -190 389 -484 594 -829 577 -44 -2 -87 -6 -95 -7 -8 -2 -33
-7 -55 -12 -147 -28 -417 -112 -570 -178 -95 -40 -431 -213 -476 -244 -46 -33
-96 -79 -332 -308 -154 -150 -354 -338 -427 -401 -25 -21 -47 -42 -50 -45 -14
-16 -143 -121 -191 -155 -101 -73 -88 -72 -261 -21 -165 50 -279 80 -343 92
-22 5 -44 9 -50 10 -5 1 -35 6 -65 10 -30 4 -63 8 -73 10 -53 10 -231 18 -372
17 -148 0 -211 -2 -520 -18 -283 -14 -250 -17 -350 32 -142 70 -222 76 -430
33 -169 -35 -325 -32 -475 9 -124 33 -288 66 -385 77 -33 4 -68 9 -78 11 -10
2 -53 6 -95 10 -42 3 -95 8 -117 10 -89 7 -374 4 -440 -5 -38 -6 -90 -13 -115
-15 -25 -3 -61 -8 -80 -11 -19 -2 -54 -7 -77 -10 -24 -3 -60 -7 -80 -10 l-38
-5 -105 127 c-134 163 -413 443 -555 557 -211 169 -437 302 -610 361 -44 14
-87 28 -95 30 -8 2 -62 17 -120 34 -134 39 -301 78 -410 97 -126 22 -331 26
-413 8z"/>
</g>
</svg>
